<svg width="32" height="32" viewBox="0 0 32 32" fill="none" xmlns="http://www.w3.org/2000/svg">
<path d="M28.5806 3.44394C27.9137 2.75944 26.9266 2.50442 26.0062 2.77285L4.54408 9.014C3.57302 9.28378 2.88474 10.0582 2.69932 11.042C2.50991 12.0433 3.17152 13.3144 4.03587 13.8458L10.7466 17.9704C11.4349 18.3932 12.3233 18.2872 12.8928 17.7126L20.5773 9.98037C20.9641 9.57772 21.6043 9.57772 21.9913 9.98037C22.3781 10.3696 22.3781 11.0004 21.9913 11.4031L14.2934 19.1368C13.7225 19.7098 13.6158 20.6024 14.0359 21.2949L18.1363 28.073C18.6165 28.8782 19.4435 29.3346 20.3505 29.3346C20.4573 29.3346 20.5773 29.3346 20.6841 29.3212C21.7245 29.187 22.5514 28.4757 22.8582 27.469L29.2209 6.03436C29.501 5.12168 29.2475 4.12846 28.5806 3.44394Z" fill="white"/>
</svg>
